<?xml version="1.0" encoding="utf-8"?>
<!-- Generator: Adobe Illustrator 19.1.0, SVG Export Plug-In . SVG Version: 6.00 Build 0)  -->
<svg version="1.1" id="Layer_1" xmlns="http://www.w3.org/2000/svg" xmlns:xlink="http://www.w3.org/1999/xlink" x="0px" y="0px"
	 viewBox="0 0 399.5 59.9" style="enable-background:new 0 0 399.5 59.9;" xml:space="preserve">
<style type="text/css">
	.st0{fill:none;}
	.st1{fill:#FFFFFF;}
</style>
<g id="BriteCore_Simple">
	<path class="st0" d="M43.6,26l11.1,1.5c-1.3-6.1-7.6-10.9-15.4-11.8l1.3,7.3C40.8,24.6,42.1,25.8,43.6,26z"/>
	<path class="st0" d="M33,23.1l1.3-7.3c-7.8,0.9-14.1,5.7-15.4,11.8L30,26C31.5,25.8,32.8,24.6,33,23.1z"/>
	<path class="st0" d="M30,33.8l-11.1-1.5c1.3,6.1,7.6,10.9,15.4,11.8L33,36.8C32.8,35.2,31.5,34,30,33.8z"/>
	<path class="st0" d="M43.6,33.8c-1.6,0.2-2.8,1.4-3.1,3l-1.3,7.3c7.8-0.9,14.1-5.7,15.4-11.8L43.6,33.8z"/>
	<g>
		<g>
			<g>
				<path class="st1" d="M18.9,27.5L30,26.1c1.6-0.2,2.8-1.4,3.1-3l1.3-7.3C26.4,16.6,20.2,21.4,18.9,27.5z"/>
			</g>
		</g>
		<g>
			<g>
				<path class="st1" d="M43.6,33.8c-1.6,0.2-2.8,1.4-3.1,3l-1.3,7.3c7.8-0.9,14.1-5.7,15.4-11.8L43.6,33.8z"/>
			</g>
		</g>
		<g>
			<g>
				<path class="st1" d="M33,36.8c-0.3-1.6-1.5-2.7-3.1-3l-11.1-1.5c1.3,6.1,7.6,10.9,15.4,11.8L33,36.8z"/>
			</g>
		</g>
		<g>
			<g>
				<path class="st1" d="M39.3,15.8l1.3,7.3c0.3,1.6,1.5,2.7,3.1,3l11.1,1.5C53.4,21.4,47.2,16.6,39.3,15.8z"/>
			</g>
		</g>
		<g>
			<g>
				<path class="st1" d="M36.8,0C16.5,0,0,13.4,0,29.9c0,16.5,16.5,29.9,36.8,29.9s36.8-13.4,36.8-29.9C73.6,13.4,57.1,0,36.8,0z
					 M58.5,31.8c-1.1,8.5-9.4,15.2-19.8,15.9l-1.9,11.1l-1.9-11.1C24.5,47,16.2,40.3,15.1,31.8L0.7,29.9L15.1,28
					c1.1-8.5,9.4-15.2,19.8-15.9L36.8,1l1.9,11.1c10.4,0.7,18.7,7.5,19.8,15.9l14.4,1.9L58.5,31.8z"/>
			</g>
		</g>
	</g>
	<g>
		<path class="st1" d="M91.5,5.9h18c3,0,5.5,0.3,7.6,1c2.1,0.7,3.7,1.6,5,2.8s2.2,2.5,2.8,4c0.6,1.5,0.9,3.1,0.9,4.7
			c0,1.5-0.3,2.9-0.8,4.1c-0.6,1.2-1.2,2.2-1.9,3c-0.7,0.8-1.5,1.5-2.3,2c-0.8,0.5-1.5,0.8-2.1,0.9c0.9,0.2,1.9,0.6,2.9,1.1
			c2,0.9,3.6,2.2,4.9,4c1.3,1.8,1.9,4,1.9,6.6c0,2.5-0.4,4.6-1.3,6.3c-0.9,1.7-2.1,3.1-3.7,4.2c-1.6,1.1-3.6,1.9-5.9,2.4
			c-2.3,0.5-4.9,0.8-7.8,0.8h-18V5.9z M108.5,25.1c0.8,0,1.6-0.1,2.4-0.3c0.8-0.2,1.5-0.5,2.1-0.9c0.6-0.4,1.1-1,1.5-1.7
			c0.4-0.7,0.6-1.5,0.6-2.6c0-1.1-0.2-1.9-0.6-2.6c-0.4-0.7-0.9-1.2-1.5-1.7c-0.6-0.4-1.3-0.7-2.1-0.9c-0.8-0.2-1.6-0.3-2.3-0.3
			h-6.4v10.8H108.5z M109.2,45.6c0.8,0,1.6-0.1,2.6-0.2c1-0.1,1.8-0.4,2.7-0.8c0.8-0.4,1.5-1.1,2.1-1.9c0.6-0.8,0.8-1.9,0.8-3.4
			c0-1.3-0.3-2.4-0.8-3.2c-0.5-0.8-1.2-1.5-2-1.9c-0.8-0.5-1.7-0.8-2.7-0.9c-1-0.2-1.8-0.3-2.7-0.3h-7.1v12.5H109.2z"/>
		<path class="st1" d="M134.9,20.2h9.9l0.4,4.2c0.9-1.2,2.1-2.3,3.6-3.3c1.5-1.1,3.5-1.6,5.9-1.6c0.9,0,1.7,0,2.3,0.1
			c0.6,0.1,1.3,0.3,1.9,0.5l-1.7,9.1c-1.1-0.3-2.3-0.5-3.7-0.5c-2.4,0-4.4,0.7-5.9,2.2c-1.5,1.5-2.3,3.5-2.3,6.2v16.7h-10.4V20.2z"
			/>
		<path class="st1" d="M163.1,5.9h11.1v9.3h-11.1V5.9z M163.5,20.2h10.4v33.8h-10.4V20.2z"/>
		<path class="st1" d="M184.3,28.3h-5.3v-8.1h5.3V9.1h10.4v11.1h8.7v8.1h-8.7v13.3c0,1.6,0.3,2.9,1,3.8c0.6,0.9,1.7,1.3,3.1,1.3
			c1.1,0,2-0.2,2.7-0.5c0.8-0.4,1.5-0.8,2.2-1.3l4.2,6.3c-3.3,2.6-6.8,3.9-10.7,3.9c-2.4,0-4.4-0.3-6-1s-3-1.7-4-2.9
			c-1-1.2-1.7-2.7-2.2-4.4c-0.4-1.7-0.6-3.6-0.6-5.8V28.3z"/>
		<path class="st1" d="M242.1,50.3c-0.4,0.2-1,0.6-1.7,1.2c-0.8,0.6-1.8,1.1-3,1.6c-1.2,0.5-2.7,1-4.4,1.4c-1.7,0.4-3.6,0.6-5.8,0.6
			c-2.9,0-5.5-0.4-7.8-1.3c-2.3-0.9-4.3-2.1-5.9-3.7s-2.8-3.5-3.7-5.7c-0.8-2.2-1.3-4.7-1.3-7.4c0-2.4,0.4-4.6,1.2-6.8
			c0.8-2.2,1.9-4.1,3.4-5.7c1.5-1.6,3.3-2.9,5.5-3.9c2.2-1,4.6-1.5,7.3-1.5c2.7,0,5.1,0.5,7.2,1.4c2.1,1,3.8,2.3,5.2,4
			c1.4,1.7,2.5,3.7,3.2,6.1c0.7,2.4,1.1,5,1.1,7.8v1.7h-24c0,1.8,0.9,3.4,2.4,4.8c1.6,1.4,3.7,2.1,6.4,2.1c2.7,0,4.9-0.4,6.6-1.2
			c1.7-0.8,2.9-1.5,3.7-2.1L242.1,50.3z M233,33.5c0-0.7-0.1-1.5-0.4-2.2c-0.3-0.7-0.7-1.4-1.3-2.1c-0.6-0.6-1.3-1.1-2.2-1.5
			c-0.9-0.4-1.9-0.6-3.1-0.6s-2.3,0.2-3.2,0.6c-0.9,0.4-1.7,0.9-2.3,1.5c-0.6,0.6-1.1,1.3-1.4,2.1c-0.3,0.7-0.5,1.5-0.5,2.2H233z"/>
		<path class="st1" d="M292.9,45.1c-1,1.4-2.2,2.7-3.7,3.9c-1.4,1.2-3,2.3-4.8,3.2c-1.8,0.9-3.6,1.6-5.7,2.2c-2,0.5-4.2,0.8-6.4,0.8
			c-3.6,0-7-0.6-10-1.9c-3-1.2-5.6-3-7.8-5.2c-2.2-2.2-3.9-4.9-5.1-7.9c-1.2-3-1.8-6.4-1.8-10c0-3.6,0.6-6.9,1.8-10
			c1.2-3.1,2.9-5.8,5.1-8.1c2.2-2.3,4.8-4.1,7.8-5.4c3-1.3,6.4-2,10.1-2c4.5,0,8.4,0.8,11.7,2.4c3.3,1.6,6.1,4,8.3,7.1l-7.4,7.1
			c-1.4-2-3.1-3.6-5.1-4.9c-2-1.2-4.3-1.8-7.1-1.8c-2.2,0-4.1,0.4-5.8,1.2c-1.7,0.8-3.2,1.9-4.4,3.3c-1.2,1.4-2.1,3-2.8,4.9
			c-0.6,1.8-1,3.8-1,5.9c0,2.1,0.3,4.1,1,5.9c0.6,1.8,1.6,3.4,2.8,4.8c1.2,1.3,2.6,2.4,4.3,3.2c1.7,0.8,3.6,1.2,5.7,1.2
			c1.7,0,3.2-0.2,4.5-0.5s2.4-0.8,3.4-1.4c1-0.6,1.9-1.3,2.6-2.1c0.8-0.8,1.5-1.6,2.2-2.4L292.9,45.1z"/>
		<path class="st1" d="M297,37c0-2.5,0.4-4.8,1.3-7c0.9-2.2,2.1-4.1,3.7-5.7c1.6-1.6,3.5-2.9,5.7-3.9c2.2-0.9,4.7-1.4,7.4-1.4
			c2.7,0,5.1,0.5,7.3,1.4s4.1,2.2,5.7,3.9c1.6,1.6,2.8,3.5,3.7,5.7c0.9,2.2,1.3,4.5,1.3,7c0,2.5-0.4,4.8-1.3,7
			c-0.9,2.2-2.1,4.1-3.7,5.7c-1.6,1.6-3.5,2.9-5.7,3.9s-4.7,1.4-7.3,1.4c-2.7,0-5.1-0.5-7.4-1.4c-2.2-1-4.1-2.3-5.7-3.9
			c-1.6-1.6-2.8-3.5-3.7-5.7C297.4,41.8,297,39.5,297,37z M315.1,46.1c1.3,0,2.4-0.3,3.5-0.8s1.9-1.2,2.6-2.1
			c0.7-0.9,1.2-1.8,1.5-2.9c0.3-1.1,0.5-2.2,0.5-3.3s-0.2-2.3-0.5-3.3c-0.3-1.1-0.9-2-1.5-2.9c-0.7-0.8-1.5-1.5-2.6-2
			s-2.2-0.8-3.5-0.8c-1.3,0-2.5,0.3-3.5,0.8c-1,0.5-1.9,1.2-2.6,2c-0.7,0.8-1.2,1.8-1.5,2.9c-0.4,1.1-0.5,2.2-0.5,3.3
			s0.2,2.3,0.5,3.3c0.4,1.1,0.9,2.1,1.5,2.9c0.7,0.9,1.5,1.5,2.6,2.1C312.6,45.8,313.8,46.1,315.1,46.1z"/>
		<path class="st1" d="M339.3,20.2h9.9l0.4,4.2c0.9-1.2,2.1-2.3,3.6-3.3c1.5-1.1,3.5-1.6,5.9-1.6c0.9,0,1.7,0,2.3,0.1
			c0.6,0.1,1.3,0.3,1.9,0.5l-1.7,9.1c-1.1-0.3-2.3-0.5-3.7-0.5c-2.4,0-4.4,0.7-5.9,2.2c-1.5,1.5-2.3,3.5-2.3,6.2v16.7h-10.4V20.2z"
			/>
		<path class="st1" d="M398,50.3c-0.4,0.2-1,0.6-1.7,1.2c-0.8,0.6-1.8,1.1-3,1.6c-1.2,0.5-2.7,1-4.4,1.4c-1.7,0.4-3.6,0.6-5.8,0.6
			c-2.9,0-5.5-0.4-7.8-1.3c-2.3-0.9-4.3-2.1-5.9-3.7c-1.6-1.6-2.8-3.5-3.7-5.7c-0.8-2.2-1.3-4.7-1.3-7.4c0-2.4,0.4-4.6,1.2-6.8
			c0.8-2.2,1.9-4.1,3.4-5.7c1.5-1.6,3.3-2.9,5.5-3.9c2.2-1,4.6-1.5,7.3-1.5c2.7,0,5.1,0.5,7.2,1.4c2.1,1,3.8,2.3,5.2,4
			c1.4,1.7,2.5,3.7,3.2,6.1c0.7,2.4,1.1,5,1.1,7.8v1.7h-24c0,1.8,0.9,3.4,2.4,4.8c1.6,1.4,3.7,2.1,6.4,2.1c2.7,0,4.9-0.4,6.6-1.2
			c1.7-0.8,2.9-1.5,3.7-2.1L398,50.3z M389,33.5c0-0.7-0.1-1.5-0.4-2.2c-0.3-0.7-0.7-1.4-1.3-2.1c-0.6-0.6-1.3-1.1-2.2-1.5
			c-0.9-0.4-1.9-0.6-3.1-0.6c-1.2,0-2.3,0.2-3.2,0.6c-0.9,0.4-1.7,0.9-2.3,1.5c-0.6,0.6-1.1,1.3-1.4,2.1c-0.3,0.7-0.5,1.5-0.5,2.2
			H389z"/>
	</g>
</g>
</svg>
