<?xml version="1.0" encoding="utf-8"?>
<!-- Generator: Adobe Illustrator 19.1.0, SVG Export Plug-In . SVG Version: 6.00 Build 0)  -->
<svg version="1.1" id="Layer_1" xmlns="http://www.w3.org/2000/svg" xmlns:xlink="http://www.w3.org/1999/xlink" x="0px" y="0px"
	 viewBox="120 51.1 73.6 59.9" style="enable-background:new 120 51.1 73.6 59.9;" xml:space="preserve">
<style type="text/css">
	.st0{fill:#0191A9;}
	.st1{fill:none;}
	.st2{fill:#FFFFFF;}
</style>
<g>
	<ellipse class="st0" cx="156.8" cy="81" rx="36.8" ry="29.9"/>
	<g>
		<path class="st1" d="M163.6,77.1l11.1,1.5c-1.3-6.1-7.6-10.9-15.4-11.8l1.3,7.3C160.8,75.7,162.1,76.9,163.6,77.1z"/>
		<path class="st1" d="M153,74.2l1.3-7.3c-7.8,0.9-14.1,5.7-15.4,11.8l11.1-1.6C151.5,76.9,152.8,75.7,153,74.2z"/>
		<path class="st1" d="M150,84.9l-11.1-1.5c1.3,6.1,7.6,10.9,15.4,11.8l-1.3-7.3C152.8,86.3,151.5,85.1,150,84.9z"/>
		<path class="st1" d="M163.6,84.9c-1.6,0.2-2.8,1.4-3.1,3l-1.3,7.3c7.8-0.9,14.1-5.7,15.4-11.8L163.6,84.9z"/>
		<path class="st2" d="M178.5,82.9l14.4-1.9l-14.4-1.9c-1.1-8.5-9.4-15.2-19.8-15.9l-1.9-11.1l-1.9,11.1
			c-10.4,0.7-18.7,7.4-19.8,15.9L120.7,81l14.4,1.9c1.1,8.5,9.4,15.2,19.8,15.9l1.9,11.1l1.9-11.1C169.1,98.1,177.4,91.4,178.5,82.9
			z M174.7,78.6l-11.1-1.5c-1.6-0.2-2.8-1.4-3.1-3l-1.3-7.3C167.2,67.7,173.4,72.5,174.7,78.6z M154.3,66.9l-1.3,7.3
			c-0.3,1.6-1.5,2.7-3.1,3l-11.1,1.5C140.2,72.5,146.4,67.7,154.3,66.9z M138.9,83.4l11.1,1.5c1.6,0.2,2.8,1.4,3.1,3l1.3,7.3
			C146.4,94.3,140.2,89.5,138.9,83.4z M159.3,95.2l1.3-7.3c0.3-1.6,1.5-2.7,3.1-3l11.1-1.5C173.4,89.5,167.2,94.3,159.3,95.2z"/>
	</g>
</g>
</svg>
